Coordinates
version=1
nRows=22
nColumns=24
inDegrees=yes

Units are S.I. units (second, meters, Newtons, ...)
Angles are in degrees.

endheader
time	pelvis_tilt	pelvis_list	pelvis_rotation	pelvis_tx	pelvis_ty	pelvis_tz	hip_flexion_r	hip_adduction_r	hip_rotation_r	knee_angle_r	ankle_angle_r	subtalar_angle_r	mtp_angle_r	hip_flexion_l	hip_adduction_l	hip_rotation_l	knee_angle_l	ankle_angle_l	subtalar_angle_l	mtp_angle_l	lumbar_extension	lumbar_bending	lumbar_rotation
      6.17000000	     -0.70988531	      2.53043938	      4.83936308	     -1.69962414	      0.67579482	      0.19944724	     29.06485219	     -2.31085346	     -2.89381800	    -43.94016562	      7.74633375	    -24.22182655	      0.00000000	     -3.29912151	      7.66326120	     10.19841404	    -11.56336649	     19.00563860	     -2.24519120	      0.00000000	    -14.75725041	     -5.90621143	      0.77079819
      6.18000000	     -0.82055030	      2.78124171	      5.48102710	     -1.69051250	      0.67472252	      0.19916730	     29.00947986	     -2.89418931	     -3.09186814	    -39.78068589	      6.81032788	    -24.45880574	      0.00000000	     -4.16658162	      7.76927704	     10.55771233	    -11.41004399	     19.47275162	     -1.88642513	      0.00000000	    -14.85723096	     -6.06928297	      0.26373919
      6.19000000	     -0.92954510	      3.08586662	      6.14849646	     -1.68123960	      0.67353156	      0.19886550	     28.80002838	     -3.57165797	     -3.43961705	    -35.46154216	      5.73200847	    -24.31235264	      0.00000000	     -5.07491511	      7.90171732	     10.91725492	    -11.22976798	     19.91460708	     -1.48478831	      0.00000000	    -14.94642879	     -6.28277682	     -0.29814931
      6.20000000	     -1.10001730	      3.47768122	      6.86604299	     -1.67179995	      0.67216515	      0.19852174	     28.54683250	     -4.39345473	     -4.00817064	    -31.10753313	      4.65732780	    -23.60114475	      0.00000000	     -5.96772528	      8.10199734	     11.33256854	    -11.02034314	     20.30847855	     -1.08734833	      0.00000000	    -14.95270082	     -6.58185213	     -0.99378199
      6.21000000	     -1.12509871	      3.88932177	      7.55600256	     -1.66215508	      0.67083341	      0.19823815	     28.03902095	     -5.21018221	     -4.79523078	    -26.73204262	      3.33869926	    -22.51404068	      0.00000000	     -7.07123616	      8.26784287	     11.73846931	    -10.75320310	     20.63801193	     -0.65559134	      0.00000000	    -15.11762175	     -6.89657093	     -1.56127902
      6.22000000	     -1.22487662	      4.37161733	      8.30672493	     -1.65231914	      0.66935160	      0.19793469	     27.56771295	     -6.12148357	     -5.86000382	    -22.51770486	      2.05746111	    -20.88307144	      0.00000000	     -8.14470954	      8.47886984	     12.25378193	    -10.47143579	     20.89802418	     -0.24659213	      0.00000000	    -15.18076329	     -7.27882167	     -2.30135946
      6.23000000	     -1.14624580	      4.84796438	      8.99658722	     -1.64225369	      0.66797450	      0.19770894	     26.92165673	     -6.98066794	     -7.33522695	    -18.58286335	      1.29800270	    -18.14672906	      0.00000000	     -9.47143650	      8.62592550	     12.85916752	    -10.11219899	     20.97636971	     -0.04505546	      0.00000000	    -15.43279668	     -7.64099595	     -2.88918456
      6.24000000	     -1.15557218	      5.30460530	      9.73681063	     -1.63200707	      0.66649566	      0.19750208	     26.39553763	     -7.79892192	     -9.04274064	    -15.02701882	      0.82789010	    -14.92484442	      0.00000000	    -10.70985690	      8.72226274	     13.61729346	     -9.79278153	     21.00657122	      0.10809656	      0.00000000	    -15.55300580	     -7.98754258	     -3.53464177
      6.25000000	     -1.16706125	      5.68159578	     10.48251452	     -1.62156331	      0.66502679	      0.19736988	     25.89910158	     -8.47214103	    -10.84624843	    -11.89415994	      0.75229414	    -11.39516715	      0.00000000	    -11.91194905	      8.69501267	     14.41766688	     -9.54863719	     21.01634241	      0.28689847	      0.00000000	    -15.63221847	     -8.25998133	     -4.10856874
      6.26000000	     -1.20712100	      5.96102481	     11.22763154	     -1.61094370	      0.66358037	      0.19729943	     25.46944042	     -8.98861513	    -12.54765041	     -9.26275270	      1.05709626	     -7.78629073	      0.00000000	    -12.99679188	      8.54101678	     15.17225560	     -9.44864876	     20.97176886	      0.48745313	      0.00000000	    -15.64115620	     -8.42724658	     -4.68055778
      6.27000000	     -1.24607111	      6.11473693	     11.97895415	     -1.60013342	      0.66220317	      0.19728805	     25.04297212	     -9.31987104	    -13.95040397	     -7.11412869	      1.57975135	     -4.65931157	      0.00000000	    -13.95914564	      8.23595252	     15.86946571	     -9.54681040	     20.91765542	      0.77555165	      0.00000000	    -15.59263897	     -8.46943473	     -5.18520106
      6.28000000	     -1.30022920	      6.17244956	     12.72255733	     -1.58913944	      0.66090739	      0.19732265	     24.65232397	     -9.52209830	    -14.96780459	     -5.52133200	      2.14271085	     -2.28189260	      0.00000000	    -14.76248344	      7.83128418	     16.46164603	     -9.87265619	     20.80622521	      1.09995662	      0.00000000	    -15.48343256	     -8.42203083	     -5.65203291
      6.29000000	     -1.33031159	      6.13729359	     13.45400984	     -1.57792093	      0.65973644	      0.19739365	     24.21727738	     -9.59335004	    -15.49454297	     -4.43295167	      2.44313607	     -1.09306329	      0.00000000	    -15.44976836	      7.33127537	     16.98724292	    -10.42986847	     20.70006130	      1.46634715	      0.00000000	    -15.34720376	     -8.27757890	     -6.09221445
      6.30000000	     -1.42393118	      6.01845667	     14.17603464	     -1.56645658	      0.65863106	      0.19748679	     23.88667818	     -9.58573695	    -15.66935794	     -3.96035223	      2.60499422	     -1.08126370	      0.00000000	    -15.94261762	      6.77340836	     17.47541305	    -11.18893601	     20.37730638	      1.82560561	      0.00000000	    -15.06768639	     -8.07340170	     -6.44716673
      6.31000000	     -1.30062129	      5.77417723	     14.81507242	     -1.55468392	      0.65783957	      0.19765764	     23.34694733	     -9.36581090	    -15.63760152	     -3.99511156	      2.35700336	     -1.96431020	      0.00000000	    -16.54484618	      6.04867731	     17.82398529	    -12.09391307	     20.02972643	      2.33575674	      0.00000000	    -14.95131353	     -7.69603742	     -6.68839375
      6.32000000	     -1.25856467	      5.45191554	     15.38111555	     -1.54270252	      0.65710560	      0.19791825	     22.92592684	     -9.01811924	    -15.01840079	     -4.47362996	      1.42320609	     -4.32826185	      0.00000000	    -16.90113054	      5.30945246	     18.02453191	    -13.24381495	     19.52624120	      2.79086490	      0.00000000	    -14.67199020	     -7.28302191	     -6.87795793
      6.33000000	     -1.21117081	      5.01407924	     15.81785101	     -1.53054207	      0.65655905	      0.19828206	     22.61266822	     -8.48912184	    -14.19321185	     -5.40986702	      0.06913929	     -7.34553492	      0.00000000	    -17.13520023	      4.51850821	     18.15681065	    -14.54126440	     18.78526785	      3.11923828	      0.00000000	    -14.31917398	     -6.77362388	     -6.91625329
      6.34000000	     -1.14878734	      4.42435761	     16.05863311	     -1.51829599	      0.65624987	      0.19880645	     22.44533453	     -7.71436717	    -13.14188048	     -6.73887678	     -1.49628794	    -10.65171325	      0.00000000	    -17.21715310	      3.67186384	     18.12497303	    -16.01742976	     17.76662675	      3.25973338	      0.00000000	    -13.92068164	     -6.13012649	     -6.74188858
      6.35000000	     -1.03879656	      3.75932994	     16.09774053	     -1.50613592	      0.65629901	      0.19948490	     22.34769749	     -6.74312060	    -11.75129043	     -8.31386410	     -2.80661565	    -13.83552270	      0.00000000	    -17.12249858	      2.86290061	     17.88495675	    -17.78619898	     16.27938760	      3.29493482	      0.00000000	    -13.58708801	     -5.41333353	     -6.36717144
      6.36000000	     -0.87066149	      2.97389554	     15.91177721	     -1.49411351	      0.65672324	      0.20030685	     22.35732167	     -5.54186921	    -10.32056771	    -10.14429287	     -3.52589775	    -16.39273600	      0.00000000	    -16.85226179	      2.05652537	     17.40494674	    -19.82295938	     14.37722188	      3.16898789	      0.00000000	    -13.33044004	     -4.54970045	     -5.83830005
      6.37000000	     -0.64837809	      2.12748340	     15.56492101	     -1.48229684	      0.65752501	      0.20122336	     22.35486906	     -4.18146202	     -8.92065263	    -12.01414103	     -3.51807832	    -18.18701044	      0.00000000	    -16.35252975	      1.29518883	     16.68449868	    -22.21417739	     11.92700724	      2.92793133	      0.00000000	    -13.19511440	     -3.59176194	     -5.21709421
      6.38000000	     -0.38957970	      1.22873239	     15.19690591	     -1.47070881	      0.65865167	      0.20212394	     22.23337708	     -2.74556120	     -7.88392194	    -13.71513829	     -2.75822891	    -18.95516110	      0.00000000	    -15.54557272	      0.53079677	     15.77201057	    -25.01784967	      8.85398280	      2.70850027	      0.00000000	    -13.16568664	     -2.53387108	     -4.63453960
